<svg width="140" height="140" viewBox="0 0 140 140" fill="none" xmlns="http://www.w3.org/2000/svg">
<rect width="140" height="140" fill="white"/>
<circle cx="70" cy="70" r="60" fill="#EBF3FF"/>
<path fill-rule="evenodd" clip-rule="evenodd" d="M56.7053 128.522C95.1734 126.814 125.836 95.086 125.836 56.1966C125.836 52.872 125.612 49.5996 125.178 46.3939C128.282 53.6392 130 61.6189 130 69.9999C130 103.137 103.137 130 70.0004 130C65.4314 130 60.9818 129.489 56.7053 128.522Z" fill="#5A4BFF" fill-opacity="0.1"/>
<path fill-rule="evenodd" clip-rule="evenodd" d="M50.1778 73.8226C51.1662 73.2482 52.5917 73.1623 53.7106 73.4172L54.1271 71.589C52.6932 71.2625 50.7491 71.322 49.2357 72.2014C48.4585 72.653 47.7884 73.3273 47.396 74.2682C47.0057 75.2039 46.9218 76.3263 47.1788 77.6271C47.6594 80.0599 49.2298 81.4026 50.879 81.9244C51.6868 82.1799 52.5139 82.2402 53.2453 82.145C53.9556 82.0525 54.6758 81.7986 55.1769 81.3231L53.8862 79.963C53.7746 80.0689 53.4864 80.2228 53.0032 80.2857C52.5412 80.3459 51.9898 80.3092 51.4446 80.1367C50.3878 79.8024 49.3543 78.9649 49.0182 77.2637C48.8157 76.2388 48.9105 75.5079 49.1265 74.99C49.3403 74.4774 49.7041 74.0978 50.1778 73.8226Z" fill="#1D2129"/>
<path d="M38.791 83.9116C38.5034 83.7983 38.1839 83.9862 38.1585 84.2942C38.0139 86.0502 38.1796 87.8195 38.6497 89.5209C39.1744 91.4195 40.0679 93.1963 41.2792 94.7496C42.4905 96.303 43.9959 97.6026 45.7095 98.5742C47.4231 99.5457 49.3112 100.17 51.2661 100.412C53.2211 100.654 55.2045 100.508 57.1032 99.9838C59.0018 99.4591 60.7786 98.5656 62.3319 97.3543C63.8853 96.143 65.1849 94.6376 66.1564 92.924C67.0276 91.3876 67.6197 89.7108 67.9072 87.9714C67.9574 87.6675 67.699 87.4072 67.3933 87.4451C65.1857 87.7193 57.3836 88.5865 52.1704 87.8694C47.4185 87.2157 40.76 84.6874 38.791 83.9116Z" fill="#1D2129"/>
<path fill-rule="evenodd" clip-rule="evenodd" d="M38.1084 85.6579C38.1083 85.6532 38.1083 85.6485 38.1082 85.6438C38.1047 85.194 38.1214 84.7436 38.1584 84.2942C38.1838 83.9861 38.5033 83.7982 38.7909 83.9115C40.7599 84.6874 47.4184 87.2156 52.1703 87.8693C57.3835 88.5864 65.1856 87.7192 67.3932 87.4451C67.6989 87.4071 67.9573 87.6674 67.9071 87.9713C67.8329 88.4203 67.7384 88.865 67.6241 89.3043C67.6239 89.3048 67.6238 89.3053 67.6237 89.3059C67.6239 89.3058 67.6241 89.3058 67.6242 89.3058M38.1084 85.6579C38.1199 86.9608 38.3011 88.2595 38.6496 89.5208C39.1743 91.4195 40.0678 93.1962 41.2791 94.7496C42.4904 96.3029 43.9958 97.6025 45.7094 98.5741C47.423 99.5457 49.3111 100.17 51.266 100.412C53.221 100.654 55.2044 100.508 57.1031 99.9837C59.0017 99.4591 60.7785 98.5656 62.3318 97.3542C63.8852 96.1429 65.1848 94.6375 66.1563 92.9239C66.8024 91.7845 67.295 90.568 67.6237 89.3059M36.2897 84.1402C36.127 86.1157 36.3135 88.1062 36.8424 90.0202C37.4326 92.1562 38.4378 94.155 39.8005 95.9026C41.1633 97.6501 42.8568 99.1121 44.7846 100.205C46.7124 101.298 48.8365 102.001 51.0358 102.273C53.2351 102.545 55.4665 102.381 57.6025 101.791C59.7385 101.201 61.7373 100.196 63.4848 98.8328C65.2324 97.4701 66.6944 95.7765 67.7874 93.8488C68.7674 92.1203 69.4336 90.2339 69.757 88.277C70.019 86.6919 68.6652 85.3977 67.1621 85.5844C64.9222 85.8625 57.3588 86.6904 52.4258 86.0118C47.9302 85.3934 41.4736 82.9533 39.4782 82.167C38.0863 81.6185 36.424 82.51 36.2897 84.1402Z" fill="#1D2129"/>
<mask id="mask0_189_2629" style="mask-type:alpha" maskUnits="userSpaceOnUse" x="38" y="83" width="30" height="18">
<path d="M38.2212 83.6839C37.9793 85.6388 38.1248 87.6222 38.6495 89.5209C39.1742 91.4196 40.0677 93.1963 41.279 94.7497C42.4903 96.3031 43.9957 97.6026 45.7093 98.5742C47.4228 99.5458 49.311 100.17 51.2659 100.412C53.2208 100.654 55.2043 100.508 57.1029 99.9838C59.0016 99.4592 60.7783 98.5657 62.3317 97.3543C63.8851 96.143 65.1847 94.6376 66.1562 92.9241C67.1278 91.2105 67.7523 89.3224 67.9942 87.3674L38.2212 83.6839Z" fill="#171921"/>
</mask>
<g mask="url(#mask0_189_2629)">
<path d="M41.0028 101.254C40.3194 106.778 44.2433 111.81 49.7672 112.493C55.2911 113.176 60.3231 109.252 61.0066 103.729C61.69 98.2047 57.766 93.1727 52.2421 92.4892C46.7182 91.8058 41.6862 95.7298 41.0028 101.254Z" fill="#FF8A00"/>
</g>
<path d="M65.5621 68.7539C65.1497 72.2244 66.691 75.2607 69.0047 75.5356C71.3184 75.8106 73.5283 73.22 73.9407 69.7495C74.353 66.279 72.8117 63.2427 70.4981 62.9678C68.1844 62.6929 65.9745 65.2834 65.5621 68.7539Z" fill="#1D2129"/>
<path d="M35.5579 64.1028C35.1759 67.5767 36.7436 70.5994 39.0596 70.8541C41.3756 71.1088 43.5628 68.4991 43.9449 65.0251C44.3269 61.5511 42.7591 58.5284 40.4431 58.2737C38.1271 58.019 35.9399 60.6288 35.5579 64.1028Z" fill="#1D2129"/>
</svg>
