<svg width="100" height="74" viewBox="0 0 100 74" fill="none" xmlns="http://www.w3.org/2000/svg">
<g opacity="0.15">
<path d="M93.499 72.6169C96.8716 72.6169 99.6057 69.894 99.6057 66.5352C99.6057 63.1765 96.8716 60.4536 93.499 60.4536C90.1263 60.4536 87.3922 63.1765 87.3922 66.5352C87.3922 69.894 90.1263 72.6169 93.499 72.6169Z" fill="#254EFF"/>
<path d="M0.0342534 68.8742C0.631407 63.2943 1.84933 57.7977 3.6656 52.4857C5.46813 47.1613 7.9065 42.0719 10.9283 37.3269C12.4837 34.9046 14.2605 32.6306 16.2361 30.534C18.3048 28.3084 20.7254 26.4353 23.4019 24.9888C24.8441 24.2297 26.3834 23.6701 27.9774 23.3252C29.6396 22.9675 31.3513 22.8982 33.0371 23.1203C33.4608 23.1685 33.8723 23.2529 34.2899 23.3373C34.7154 23.4367 35.1355 23.5574 35.5488 23.6989C36.366 23.9737 37.1545 24.327 37.9031 24.7537C39.3156 25.5757 40.5933 26.6083 41.6918 27.8156C43.6592 30.0394 45.2312 32.5813 46.3399 35.3318C47.4164 37.9124 48.2826 40.575 48.9303 43.294C49.5779 45.9641 50.056 48.6463 50.4313 51.3405C50.6068 52.6907 50.7641 54.0408 50.8791 55.409C50.9336 56.0961 50.976 56.7772 51.0002 57.4824C51.0002 57.8381 51.0002 58.1937 51.0002 58.5734C51.0002 58.9531 51.0002 59.2907 50.9578 59.6463C50.8622 62.6198 50.0172 65.5216 48.5006 68.0846C47.6822 69.4078 46.6182 70.5635 45.3655 71.4901C44.0686 72.4399 42.5623 73.0667 40.9724 73.3184C39.3826 73.57 37.7553 73.4391 36.2266 72.9367C34.7188 72.4274 33.3454 71.587 32.2079 70.4775C31.1161 69.3949 30.214 68.1379 29.5389 66.7586C28.8908 65.4187 28.4208 64.0004 28.1409 62.5394C27.8675 61.1272 27.7297 59.6922 27.7293 58.254C27.7293 56.8797 27.7293 55.5115 27.814 54.1493C27.9705 51.4182 28.2919 48.699 28.7763 46.0063C29.7534 40.6126 31.3139 35.34 33.4305 30.2808C35.5567 25.1646 38.27 20.3104 41.5163 15.8151C44.839 11.3307 48.779 7.11155 53.8447 3.911C56.4832 2.21612 59.4131 1.02076 62.4873 0.384974C65.6958 -0.176551 68.9824 -0.123357 72.1709 0.541692C75.3823 1.23134 78.4207 2.5598 81.104 4.44743C83.6954 6.27722 85.9966 8.48367 87.9309 10.9932C91.7317 15.8754 94.2313 21.3 96.1135 26.7729C97.9567 32.2436 99.2403 37.8858 99.9446 43.6134V43.6737C100.181 45.568 99.6528 47.4784 98.4753 48.9846C97.2977 50.4908 95.5675 51.4694 93.6654 51.7052C91.7633 51.941 89.845 51.4146 88.3326 50.2419C86.8202 49.0691 85.8376 47.3461 85.6008 45.4518C85.5656 45.1556 85.5454 44.8579 85.5403 44.5597C85.5625 39.7149 85.0777 34.8809 84.0938 30.1362C83.2094 25.5552 81.5736 21.1506 79.252 17.0989C76.9401 13.2836 73.8474 10.3362 69.9376 9.0162C68.9423 8.6714 67.9141 8.42904 66.8691 8.29291C65.8552 8.1379 64.8246 8.1237 63.8067 8.25071C61.6332 8.55304 59.5343 9.25185 57.6153 10.3121C53.5058 12.494 49.7473 15.8874 46.5215 19.6967C43.2549 23.5872 40.4803 27.8625 38.2602 32.4266C35.9768 37.0103 34.2421 41.8452 33.0916 46.8321C32.5225 49.3285 32.1182 51.8594 31.8811 54.4085C31.7601 55.6803 31.6753 56.9581 31.6451 58.2359C31.5959 59.4447 31.6607 60.6555 31.8388 61.8523C32.2079 64.1849 33.0855 66.4271 34.6591 67.9701C35.395 68.7388 36.3065 69.319 37.316 69.6611C38.3256 70.0032 39.4032 70.0972 40.4571 69.9351C41.5203 69.7162 42.523 69.2697 43.3956 68.6265C44.2682 67.9833 44.99 67.1588 45.5108 66.2101C46.6328 64.1378 47.2193 61.8199 47.2175 59.4655C47.2175 59.1641 47.2175 58.8627 47.2175 58.5553C47.2175 58.2479 47.2175 57.9526 47.1691 57.6633C47.1267 57.0606 47.0541 56.4096 46.9815 55.7767C46.8302 54.511 46.6304 53.2392 46.3763 51.9734C45.9014 49.4447 45.2667 46.9484 44.4758 44.4995C43.7287 42.0977 42.7708 39.7662 41.6131 37.5318C40.5649 35.4323 39.1834 33.5151 37.5218 31.854C36.7821 31.1429 35.937 30.5494 35.0162 30.094C34.1682 29.694 33.2528 29.4548 32.3169 29.3888C30.3105 29.274 28.3181 29.7838 26.6157 30.8474C24.6697 32.0347 22.9286 33.5265 21.4592 35.2655C19.88 37.1083 18.4741 39.0916 17.2589 41.1904C14.7753 45.5202 12.8245 50.1323 11.4488 54.9268C10.0218 59.7071 9.12474 64.6287 8.77369 69.6035C8.7556 70.19 8.61913 70.7667 8.37241 71.2995C8.12569 71.8322 7.77374 72.3101 7.33761 72.7045C6.90148 73.0989 6.39006 73.4018 5.83386 73.5951C5.27766 73.7885 4.68807 73.8683 4.10023 73.8298C3.51239 73.7914 2.93832 73.6354 2.4123 73.3713C1.88628 73.1071 1.41907 72.7402 1.0385 72.2923C0.657931 71.8445 0.371809 71.3249 0.197195 70.7646C0.0225817 70.2043 -0.0369679 69.6147 0.0221371 69.0309C0.0237519 68.9785 0.0278029 68.9262 0.0342534 68.8742Z" fill="url(#paint0_linear_1018_7578)"/>
</g>
<defs>
<linearGradient id="paint0_linear_1018_7578" x1="-2.81031" y1="36.8447" x2="99.9628" y2="36.8447" gradientUnits="userSpaceOnUse">
<stop stop-color="#FF00FF"/>
<stop offset="1" stop-color="#254EFF"/>
</linearGradient>
</defs>
</svg>
